<svg xmlns="http://www.w3.org/2000/svg" version="1.1" xmlns:xlink="http://www.w3.org/1999/xlink" xmlns:svgjs="http://svgjs.dev/svgjs" width="1440" height="560" preserveAspectRatio="none" viewBox="0 0 1440 560"><g mask="url(&quot;#SvgjsMask1047&quot;)" fill="none"><rect width="1440" height="560" x="0" y="0" fill="rgba(48, 131, 220, 1)"></rect><path d="M1464 560L0 560 L0 507.51Q9.03 444.54, 72 453.57Q140.25 401.81, 192 470.06Q225.78 383.84, 312 417.61Q355.96 389.57, 384 433.53Q476.1 405.63, 504 497.73Q519.9 441.63, 576 457.53Q651.05 412.58, 696 487.63Q739.48 459.11, 768 502.59Q789.5 452.09, 840 473.59Q881.09 442.68, 912 483.78Q979.87 431.64, 1032 499.51Q1059.19 406.7, 1152 433.9Q1199.24 409.14, 1224 456.38Q1265.26 377.63, 1344 418.89Q1396.53 351.41, 1464 403.94z" fill="rgba(125, 222, 146, 1)"></path><path d="M1488 560L0 560 L0 576.58Q9.96 514.54, 72 524.49Q88.62 469.11, 144 485.73Q210.3 432.03, 264 498.34Q340.2 454.54, 384 530.74Q449.65 476.39, 504 542.05Q540.81 458.86, 624 495.67Q692.64 444.32, 744 512.96Q836.14 485.1, 864 577.24Q877.43 518.67, 936 532.1Q1010.75 486.85, 1056 561.59Q1110.41 496, 1176 550.41Q1207.87 462.28, 1296 494.15Q1364.44 442.59, 1416 511.03Q1483.31 506.34, 1488 573.64z" fill="rgba(248, 255, 229, 1)"></path></g><defs><mask id="SvgjsMask1047"><rect width="1440" height="560" fill="#ffffff"></rect></mask></defs></svg>