<svg xmlns="http://www.w3.org/2000/svg" version="1.1" xmlns:xlink="http://www.w3.org/1999/xlink" xmlns:svgjs="http://svgjs.dev/svgjs" width="1440" height="560" preserveAspectRatio="none" viewBox="0 0 1440 560"><g mask="url(&quot;#SvgjsMask1004&quot;)" fill="none"><rect width="1440" height="560" x="0" y="0" fill="rgba(48, 131, 220, 1)"></rect><path d="M 0,140 C 57.6,201.8 172.8,426.4 288,449 C 403.2,471.6 460.8,284.4 576,253 C 691.2,221.6 748.8,318.6 864,292 C 979.2,265.4 1036.8,104 1152,120 C 1267.2,136 1382.4,321.6 1440,372L1440 560L0 560z" fill="rgba(248, 255, 229, 1)"></path><path d="M 0,153 C 96,210.2 288,415 480,439 C 672,463 768,289.6 960,273 C 1152,256.4 1344,339.4 1440,356L1440 560L0 560z" fill="rgba(125, 222, 146, 1)"></path></g><defs><mask id="SvgjsMask1004"><rect width="1440" height="560" fill="#ffffff"></rect></mask></defs></svg>